<svg version="1.1" id="deraemon_logo" xmlns="http://www.w3.org/2000/svg" xmlns:xlink="http://www.w3.org/1999/xlink" x="0px"
	 y="0px" viewBox="0 0 362 362" style="enable-background:new 0 0 362 362;" xml:space="preserve">
<style type="text/css">
	.st0{display:none;fill:#329EFE;}
	.st1{display:none;}
	.st2{font-family:'MS-PGothic';}
	.st3{font-size:400px;}
	.st4{fill:#329EFE;}
	.st5{fill:none;}
</style>
<circle id="XMLID_2_" class="st0" cx="181.3" cy="181" r="180.7"/>
<circle id="XMLID_1_" cx="181.3" cy="181" r="180.7"/>
<text id="XMLID_4_" transform="matrix(-0.7428 -0.6695 0.6695 -0.7428 519.4917 194.4713)" class="st1 st2 st3">で</text>
<g id="XMLID_3_">
	<path id="XMLID_10_" class="st0" d="M230.6,242.7c28.4,18.9,57.3,38.1,86.4,57.6c27.9-31.7,44.8-73.2,45-118.7
		c-3.3,4.8-7,9.4-11.1,14C318.2,231.9,278.1,247.6,230.6,242.7z"/>
	<path id="XMLID_13_" class="st4" d="M105.2,150.8c27.1,24.4,50.8,40.9,71.2,49.4c22.6,9.1,47.9,13,75.8,11.5
		c28-1.5,52.4-13.8,73.3-37c16.7-18.6,24.5-38.9,23.4-61c0-0.2,0-0.3,0-0.5c-26.8-66.2-91.7-113-167.5-113
		C81.6,0.3,0.7,81.2,0.7,181s80.9,180.7,180.7,180.7c41.8,0,80.3-14.2,110.9-38c-66.3-49.6-135.1-97-206.4-142L105.2,150.8z
		 M212.3,83.2c5.9,27.7,11.9,50.7,18,68.8l-24.2,3.5c-5.3-17.4-11.3-40.3-18-68.8L212.3,83.2z M164,90.2c6.7,29.9,12.7,52.8,18,68.8
		l-24.2,3.5c-5.2-16-11.2-38.9-18-68.8L164,90.2z"/>
	<path id="XMLID_15_" class="st1" d="M362,181.6c15.3-22.2,22.3-47.3,20.8-75.1c-1.7-33.8-24.4-72.5-68-116L282.5,7.7
		C325,48.8,347.2,84,348.9,113.3c8.5,20.9,13.1,43.8,13.1,67.7C362,181.2,362,181.4,362,181.6z"/>
	<path id="XMLID_16_" class="st1" d="M292.2,323.7c15.9,11.9,31.7,24,47.4,36.2l17.1-33c-13.3-8.9-26.5-17.8-39.6-26.6
		C309.5,308.8,301.2,316.7,292.2,323.7z"/>
	<path id="XMLID_17_" class="st1" d="M317,300.3c-29.2-19.5-58-38.7-86.4-57.6c47.5,4.9,87.6-10.8,120.4-47.2
		c4.1-4.5,7.8-9.2,11.1-14c0-0.2,0-0.4,0-0.6c0-23.9-4.7-46.8-13.1-67.7c0,0.2,0,0.3,0,0.5c1.1,22.1-6.6,42.4-23.4,61
		c-20.9,23.2-45.3,35.5-73.3,37c-27.9,1.5-53.2-2.4-75.8-11.5c-20.3-8.5-44.1-25-71.2-49.4l-19.4,30.9c71.3,45,140.1,92.4,206.4,142
		C301.2,316.7,309.5,308.8,317,300.3z"/>
	<path id="XMLID_18_" class="st1" d="M230.3,152c-6.1-18.1-12.1-41.1-18-68.8l-24.2,3.5c6.7,28.4,12.6,51.3,18,68.8L230.3,152z"/>
	<path id="XMLID_19_" class="st1" d="M182,158.9c-5.2-16-11.2-38.9-18-68.8l-24.2,3.5c6.7,29.9,12.7,52.8,18,68.8L182,158.9z"/>
</g>
<rect id="_x3C_スライス_x3E_" class="st5" width="362" height="362"/>
</svg>
